<svg width="400" height="400" viewBox="0 0 400 400" fill="none" xmlns="http://www.w3.org/2000/svg">
<rect width="400" height="400" fill="white"/>
<path d="M55.9886 177.364H61.2727V208.557C61.2727 211.341 60.7614 213.706 59.7386 215.652C58.7159 217.598 57.2741 219.075 55.4134 220.084C53.5526 221.092 51.358 221.597 48.8295 221.597C46.4432 221.597 44.3196 221.163 42.4588 220.297C40.598 219.416 39.1349 218.166 38.0696 216.547C37.0043 214.928 36.4716 213.003 36.4716 210.773H41.6705C41.6705 212.009 41.9759 213.088 42.5866 214.011C43.2116 214.92 44.0639 215.631 45.1435 216.142C46.223 216.653 47.4517 216.909 48.8295 216.909C50.3494 216.909 51.642 216.589 52.7074 215.95C53.7727 215.311 54.5824 214.374 55.1364 213.138C55.7045 211.888 55.9886 210.361 55.9886 208.557V177.364ZM120.68 199.182C120.68 203.784 119.849 207.761 118.188 211.114C116.526 214.466 114.246 217.051 111.348 218.869C108.45 220.688 105.141 221.597 101.419 221.597C97.6974 221.597 94.3878 220.688 91.4901 218.869C88.5923 217.051 86.3125 214.466 84.6506 211.114C82.9886 207.761 82.1577 203.784 82.1577 199.182C82.1577 194.58 82.9886 190.602 84.6506 187.25C86.3125 183.898 88.5923 181.312 91.4901 179.494C94.3878 177.676 97.6974 176.767 101.419 176.767C105.141 176.767 108.45 177.676 111.348 179.494C114.246 181.312 116.526 183.898 118.188 187.25C119.849 190.602 120.68 194.58 120.68 199.182ZM115.567 199.182C115.567 195.403 114.935 192.214 113.67 189.615C112.42 187.016 110.723 185.048 108.578 183.713C106.447 182.378 104.061 181.71 101.419 181.71C98.777 181.71 96.3835 182.378 94.2386 183.713C92.108 185.048 90.4105 187.016 89.1463 189.615C87.8963 192.214 87.2713 195.403 87.2713 199.182C87.2713 202.96 87.8963 206.149 89.1463 208.749C90.4105 211.348 92.108 213.315 94.2386 214.651C96.3835 215.986 98.777 216.653 101.419 216.653C104.061 216.653 106.447 215.986 108.578 214.651C110.723 213.315 112.42 211.348 113.67 208.749C114.935 206.149 115.567 202.96 115.567 199.182ZM141.565 221V177.364H167.901V182.051H146.849V196.795H166.537V201.483H146.849V216.312H168.241V221H141.565ZM218.061 177.364H223.345V206.256C223.345 209.239 222.642 211.902 221.236 214.246C219.844 216.575 217.876 218.415 215.334 219.764C212.791 221.099 209.808 221.767 206.385 221.767C202.962 221.767 199.979 221.099 197.436 219.764C194.893 218.415 192.919 216.575 191.513 214.246C190.121 211.902 189.425 209.239 189.425 206.256V177.364H194.709V205.83C194.709 207.96 195.178 209.857 196.115 211.518C197.053 213.166 198.388 214.466 200.121 215.418C201.868 216.355 203.956 216.824 206.385 216.824C208.814 216.824 210.902 216.355 212.649 215.418C214.396 214.466 215.732 213.166 216.655 211.518C217.592 209.857 218.061 207.96 218.061 205.83V177.364ZM280.5 177.364V221H275.386L251.608 186.739H251.181V221H245.897V177.364H251.011L274.875 211.71H275.301V177.364H280.5Z" fill="#838383"/>
<path d="M304.863 221H299.323L315.346 177.364H320.8L336.823 221H331.283L318.244 184.267H317.903L304.863 221ZM306.908 203.955H329.238V208.642H306.908V203.955ZM360.904 177.364V221H355.62V177.364H360.904Z" fill="#D5D5D5"/>
</svg>
